<svg width="194" height="207" xmlns="http://www.w3.org/2000/svg" xmlns:xlink="http://www.w3.org/1999/xlink" xml:space="preserve" overflow="hidden"><defs><clipPath id="clip0"><rect x="918" y="337" width="194" height="207"/></clipPath><clipPath id="clip1"><rect x="918" y="337" width="194" height="207"/></clipPath><clipPath id="clip2"><rect x="919" y="338" width="193" height="205"/></clipPath><clipPath id="clip3"><rect x="919" y="338" width="193" height="205"/></clipPath></defs><g clip-path="url(#clip0)" transform="translate(-918 -337)"><g clip-path="url(#clip1)"><g clip-path="url(#clip2)"><g clip-path="url(#clip3)"><path d="M170.178 17.7308C151.71 6.38566 128.579 0.713079 100.777 0.713079L0 0.713079 0 228.666C0 246.517 14.4699 260.987 32.3209 260.987L103.773 260.987C128.466 260.987 149.931 255.427 168.175 244.306 186.41 233.185 200.319 217.665 209.886 197.755 219.444 177.845 224.235 154.995 224.235 129.18 224.235 104.71 219.837 82.8534 211.055 63.6083 202.266 44.3712 188.637 29.068 170.178 17.7228ZM161.837 180.906C154.938 193.365 145.989 202.21 134.972 207.434 123.964 212.666 111.553 215.278 97.764 215.278L49.7152 215.278 49.7152 46.4303 88.0933 46.4303C103.445 46.4303 117.009 48.5455 128.803 52.7679 140.589 56.9983 150.772 65.4511 159.337 78.1262 167.902 90.8094 172.181 108.717 172.181 131.848 172.181 152.094 168.727 168.447 161.837 180.898Z" fill="#0D164F" fill-rule="nonzero" fill-opacity="1" transform="matrix(1.00065 0 0 1 298.58 272.625)"/><path d="M400.254 80.4898 400.254 29.1962 353.535 39.9805 353.535 80.4898 316.832 80.4898 316.832 123.202 353.535 123.202 353.535 201.593C353.535 212.273 354.649 222.064 356.868 230.958 359.087 239.859 364.76 248.031 373.886 255.483 383.004 262.934 397.017 266.66 415.934 266.66 422.824 266.66 429.226 266.099 435.123 264.993 441.011 263.879 446.187 262.101 450.642 259.657L450.642 217.609 449.304 218.274C440.843 222.28 432.951 224.283 425.612 224.283 417.824 224.283 412.096 222.393 408.426 218.611 404.757 214.829 402.473 210.326 401.584 205.094 400.694 199.87 400.246 193.365 400.246 185.577L400.246 123.202 450.634 123.202 450.634 80.4898 400.246 80.4898Z" fill="#0D164F" fill-rule="nonzero" fill-opacity="1" transform="matrix(1.00065 0 0 1 298.58 272.625)"/><path d="M554.984 80.4898 554.984 29.1962 508.265 39.9805 508.265 80.4898 471.562 80.4898 471.562 123.202 508.265 123.202 508.265 201.593C508.265 212.273 509.379 222.064 511.598 230.958 513.818 239.859 519.49 248.031 528.616 255.483 537.734 262.934 551.747 266.66 570.664 266.66 577.554 266.66 583.956 266.099 589.853 264.993 595.742 263.879 600.917 262.101 605.372 259.657L605.372 217.609 604.034 218.274C595.573 222.28 587.681 224.283 580.342 224.283 572.555 224.283 566.826 222.393 563.156 218.611 559.487 214.829 557.203 210.326 556.314 205.094 555.425 199.87 554.976 193.365 554.976 185.577L554.976 123.202 605.364 123.202 605.364 80.4898 554.976 80.4898Z" fill="#0D164F" fill-rule="nonzero" fill-opacity="1" transform="matrix(1.00065 0 0 1 298.58 272.625)"/><path d="M811.011 164.225C808.68 151.726 802.791 140.613 794.378 132.849 787.496 126.271 779.836 121.159 772.257 115.935 762.514 109.045 753.773 100.256 746.386 89.9201 746.346 89.864 746.305 89.8079 746.273 89.7518 737.22 76.9404 724.456 68.7761 710.644 66.717 705.444 65.9398 701.726 65.8196 701.726 65.8196 685.862 65.8196 671.729 70.1622 659.302 78.8473 646.883 87.5245 637.236 99.6308 630.354 115.142 623.472 130.654 620.034 148.361 620.034 168.271 620.034 188.181 623.472 205.84 630.354 221.239 637.236 236.638 646.883 248.672 659.302 257.349 671.721 266.035 685.854 270.377 701.726 270.377L701.726 270.329C710.844 270.906 719.168 266.427 730.546 256.5 738.974 247.927 748.869 241.726 759.526 238.377 765.815 236.662 772 234.395 778.018 231.574 786.695 227.104 794.555 221.207 800.876 212.554 808.279 202.418 812.181 190.673 812.245 175.442 812.285 171.652 811.869 167.878 811.019 164.225ZM757.514 196.089C753.508 204.213 747.948 210.551 740.833 215.11 733.71 219.668 725.482 221.952 716.14 221.952 706.798 221.952 698.786 219.676 691.446 215.11 684.107 210.551 678.435 204.213 674.429 196.089 670.423 187.972 668.42 178.686 668.42 168.223 668.42 157.759 670.423 148.425 674.429 140.196 678.435 131.968 684.107 125.574 691.446 121.007 698.786 116.448 707.014 114.165 716.14 114.165 725.266 114.165 733.71 116.448 740.833 121.007 747.948 125.566 753.516 131.968 757.514 140.196 761.521 148.433 763.524 157.775 763.524 168.223 763.524 178.67 761.521 187.964 757.514 196.089Z" fill="#0D164F" fill-rule="nonzero" fill-opacity="1" transform="matrix(1.00065 0 0 1 298.58 272.625)"/><path d="M274.159 0C268.823 0 263.927 1.28194 259.473 3.83781 255.018 6.40169 251.517 9.8469 248.961 14.1815 246.397 18.516 245.123 23.2512 245.123 28.3629 245.123 36.5994 247.903 43.602 253.464 49.3867 259.024 55.1715 265.922 58.0639 274.151 58.0639 279.487 58.0639 284.326 56.7259 288.669 54.0578 293.003 51.3898 296.457 47.8324 299.013 43.3777 301.568 38.9309 302.85 33.9233 302.85 28.3629 302.85 20.7995 300.126 14.1815 294.678 8.50888 289.222 2.83629 282.387 4.26972e-15 274.159 4.26972e-15Z" fill="#0D164F" fill-rule="nonzero" fill-opacity="1" transform="matrix(1.00065 0 0 1 298.58 272.625)"/><path d="M250.467 80.4898 297.186 80.4898 297.186 260.987 250.467 260.987Z" fill="#0D164F" fill-rule="nonzero" fill-opacity="1" transform="matrix(1.00065 0 0 1 298.58 272.625)"/></g></g></g></g></svg>